<svg xmlns="http://www.w3.org/2000/svg" version="1.1" viewBox="74.99 26.02 106.62 195.48" width="82" height="150"><path d="M 112.750 76.690 L 98 91.361 98 124.015 L 98 156.669 111.340 169.878 C 118.677 177.143, 125.620 183.746, 126.770 184.552 C 128.758 185.944, 129.558 185.311, 142.929 171.758 L 156.996 157.500 156.998 123.337 L 157 89.173 142.919 75.837 C 135.175 68.502, 128.537 62.392, 128.169 62.260 C 127.801 62.128, 120.862 68.621, 112.750 76.690 M 141 138.060 C 141 140.985, 141.166 141.107, 144.750 140.810 C 148.006 140.541, 148.542 140.138, 148.816 137.750 C 149.116 135.149, 148.913 135, 145.066 135 C 141.197 135, 141 135.148, 141 138.060 M 140.710 144 C 140.362 145.330, 139.346 146, 137.675 146 C 134.135 146, 132 146.981, 132 148.607 C 132 149.651, 133.589 150, 138.348 150 L 144.697 150 146.268 146 L 147.839 142 144.536 142 C 142.074 142, 141.100 142.509, 140.710 144 M 131.816 154.750 C 131.527 157.268, 131.100 157.526, 126.750 157.805 C 118.395 158.341, 121.671 159.514, 130.500 159.147 C 136.241 158.909, 139 159.153, 139 159.897 C 139 161.866, 141.026 161.062, 141.891 158.750 C 144.534 151.685, 144.710 152, 138.134 152 C 132.331 152, 132.122 152.091, 131.816 154.750 M 122 165 C 122 167.883, 122.165 167.995, 126.250 167.868 L 130.500 167.737 127 167 C 124.064 166.382, 124.547 166.245, 130 166.147 C 134.527 166.066, 136.045 166.325, 135 167 C 133.741 167.814, 133.804 167.972, 135.390 167.985 C 137.375 168.001, 139.914 165.375, 139.968 163.250 C 139.991 162.340, 137.550 162, 131 162 L 122 162 122 165 M 122 170.393 C 122 171.601, 122.993 172, 126 172 C 128.200 172, 130 171.550, 130 171 C 130 170.450, 128.912 170, 127.582 170 C 126.252 170, 124.452 169.727, 123.582 169.393 C 122.544 168.995, 122 169.338, 122 170.393" stroke="none" fill="#00ab00" fill-rule="evenodd"/><path d="M 128.415 43 C 128.415 53.175, 128.564 57.337, 128.745 52.250 C 128.927 47.162, 128.927 38.837, 128.745 33.750 C 128.564 28.662, 128.415 32.825, 128.415 43 M 135.958 69.250 C 138.410 71.862, 140.548 74, 140.708 74 C 141.459 74, 140.665 73.102, 136.250 68.958 L 131.500 64.500 135.958 69.250 M 180 122.607 C 180 166.317, 179.866 170.162, 178.360 169.585 C 177.458 169.239, 172.529 166.378, 167.406 163.228 L 158.092 157.500 157.783 123 L 157.473 88.500 157.237 123.135 L 157 157.770 167.576 164.385 C 173.392 168.023, 178.792 171, 179.576 171 C 180.788 171, 181 163.867, 181 123 C 181 96.600, 180.775 75, 180.500 75 C 180.225 75, 180 96.423, 180 122.607 M 77 124.073 C 77 158.838, 77.264 168.078, 78.250 167.823 C 80.722 167.184, 95.971 157.517, 96.442 156.292 C 96.706 155.603, 96.939 147.492, 96.959 138.269 C 96.979 129.046, 97.016 115.038, 97.041 107.140 C 97.092 90.670, 96.791 89.834, 89.432 86 C 86.793 84.625, 83.816 82.713, 82.817 81.750 C 81.818 80.787, 80.100 80, 79 80 C 77.030 80, 77 80.667, 77 124.073 M 92.872 160.750 C 91.603 162.369, 91.650 162.390, 93.500 161.033 C 94.600 160.226, 95.688 159.439, 95.917 159.283 C 96.146 159.127, 95.863 159, 95.289 159 C 94.715 159, 93.627 159.787, 92.872 160.750 M 75.168 167.750 C 75.076 170.088, 75.284 172, 75.632 172 C 76.575 172, 83 167.918, 83 167.320 C 83 167.035, 81.450 167.717, 79.556 168.834 L 76.113 170.866 75.724 167.183 L 75.336 163.500 75.168 167.750 M 84.872 165.750 C 83.603 167.369, 83.650 167.390, 85.500 166.033 C 86.600 165.226, 87.688 164.439, 87.917 164.283 C 88.146 164.127, 87.863 164, 87.289 164 C 86.715 164, 85.627 164.787, 84.872 165.750 M 109 168.378 C 109 168.585, 109.787 169.373, 110.750 170.128 C 112.336 171.371, 112.371 171.336, 111.128 169.750 C 109.821 168.084, 109 167.555, 109 168.378 M 113 172.378 C 113 172.585, 113.787 173.373, 114.750 174.128 C 116.336 175.371, 116.371 175.336, 115.128 173.750 C 113.821 172.084, 113 171.555, 113 172.378" stroke="none" fill="#168315" fill-rule="evenodd"/><path d="M 96.572 160.884 C 96.271 161.370, 94.107 162.688, 91.763 163.814 C 89.418 164.939, 85.849 167.354, 83.831 169.180 C 77.725 174.706, 78.309 175.973, 93.713 190.611 C 105.760 202.058, 111 205.832, 111 203.061 C 111 202.552, 109.650 196.899, 108 190.500 C 106.269 183.788, 105 176.289, 105 172.777 C 105 167.791, 104.538 166.083, 102.449 163.344 C 99.955 160.074, 97.665 159.115, 96.572 160.884" stroke="none" fill="#002e00" fill-rule="evenodd"/><path d="M 129.500 63 C 130.495 64.100, 131.535 65, 131.810 65 C 132.085 65, 131.495 64.100, 130.500 63 C 129.505 61.900, 128.465 61, 128.190 61 C 127.915 61, 128.505 61.900, 129.500 63 M 75.203 121.750 C 75.366 146.913, 75.862 168.059, 76.304 168.743 C 77.252 170.206, 82.389 167.734, 91.500 161.429 C 93.150 160.287, 95.287 159.063, 96.250 158.708 C 97.835 158.123, 97.981 156.437, 97.798 140.781 L 97.595 123.500 97.048 140.170 C 96.746 149.339, 96.275 157.042, 96 157.288 C 94.484 158.646, 78.696 168, 77.921 168 C 77.374 168, 77 150.143, 77 124 C 77 80.667, 77.030 80, 79 80 C 80.100 80, 81.818 80.787, 82.817 81.750 C 83.816 82.713, 86.793 84.625, 89.432 86 C 96.839 89.859, 97.106 90.621, 96.946 107.459 C 96.869 115.533, 97.075 122.408, 97.403 122.736 C 97.731 123.065, 98 115.679, 98 106.323 L 98 89.312 87.109 82.656 C 81.119 78.995, 75.923 76, 75.562 76 C 75.201 76, 75.040 96.587, 75.203 121.750 M 141 138.060 C 141 140.985, 141.166 141.107, 144.750 140.810 C 148.006 140.541, 148.542 140.138, 148.816 137.750 C 149.116 135.149, 148.913 135, 145.066 135 C 141.197 135, 141 135.148, 141 138.060 M 140.710 144 C 140.362 145.330, 139.346 146, 137.675 146 C 134.135 146, 132 146.981, 132 148.607 C 132 149.651, 133.589 150, 138.348 150 L 144.697 150 146.268 146 L 147.839 142 144.536 142 C 142.074 142, 141.100 142.509, 140.710 144 M 131.816 154.750 C 131.527 157.268, 131.100 157.526, 126.750 157.805 C 118.395 158.341, 121.671 159.514, 130.500 159.147 C 136.241 158.909, 139 159.153, 139 159.897 C 139 161.866, 141.026 161.062, 141.891 158.750 C 144.534 151.685, 144.710 152, 138.134 152 C 132.331 152, 132.122 152.091, 131.816 154.750 M 142.400 172.277 L 128 186.840 128 204.072 L 128 221.305 133.250 216.290 C 136.137 213.532, 143.844 206.151, 150.376 199.888 C 156.908 193.624, 162.866 188.562, 163.615 188.637 C 164.365 188.712, 164.756 188.414, 164.484 187.974 C 164.212 187.534, 167.914 183.534, 172.712 179.087 C 177.982 174.201, 180.759 171, 179.728 171 C 178.789 171, 174.978 169.066, 171.260 166.702 C 167.542 164.338, 162.768 161.348, 160.650 160.059 L 156.801 157.714 142.400 172.277 M 122 165 C 122 167.883, 122.165 167.995, 126.250 167.868 L 130.500 167.737 127 167 C 124.064 166.382, 124.547 166.245, 130 166.147 C 134.527 166.066, 136.045 166.325, 135 167 C 133.741 167.814, 133.804 167.972, 135.390 167.985 C 137.375 168.001, 139.914 165.375, 139.968 163.250 C 139.991 162.340, 137.550 162, 131 162 L 122 162 122 165 M 122 170.393 C 122 171.601, 122.993 172, 126 172 C 128.200 172, 130 171.550, 130 171 C 130 170.450, 128.912 170, 127.582 170 C 126.252 170, 124.452 169.727, 123.582 169.393 C 122.544 168.995, 122 169.338, 122 170.393" stroke="none" fill="#1c981c" fill-rule="evenodd"/><path d="M 136 35 C 136 35.550, 136.477 36, 137.059 36 C 137.641 36, 137.840 35.550, 137.500 35 C 137.160 34.450, 136.684 34, 136.441 34 C 136.198 34, 136 34.450, 136 35 M 164 61.833 C 164 63.149, 164.626 64, 165.594 64 C 166.470 64, 167.416 64.875, 167.696 65.944 C 167.975 67.013, 169.125 68.025, 170.252 68.194 C 171.378 68.362, 173.216 69.732, 174.336 71.238 L 176.372 73.975 173.936 76.571 C 172.596 77.998, 168.201 81.223, 164.168 83.738 L 156.836 88.309 143.149 74.905 L 129.463 61.500 143.732 75.931 L 158 90.361 158.036 123.931 L 158.072 157.500 167.396 163.228 C 172.525 166.378, 177.458 169.239, 178.360 169.585 C 179.866 170.162, 180 166.312, 180 122.548 C 180 84.741, 180.259 75.014, 181.250 75.522 C 182.541 76.182, 180.578 74.351, 170.796 65.765 C 167.658 63.011, 164.846 60.512, 164.546 60.212 C 164.246 59.912, 164 60.642, 164 61.833 M 86.687 165.361 L 75.043 172.692 77.522 175.020 C 78.885 176.301, 80 176.847, 80 176.233 C 80 175.620, 79.550 174.840, 79 174.500 C 78.450 174.160, 78 173.505, 78 173.044 C 78 171.855, 96.523 160, 98.380 160 C 99.227 160, 101.585 161.800, 103.620 164 C 105.656 166.200, 107.788 168, 108.358 168 C 108.928 168, 107.618 166.299, 105.447 164.220 C 98.256 157.334, 99.563 157.254, 86.687 165.361 M 121.225 180.504 L 126.951 186.508 127.251 204.004 L 127.550 221.500 127.775 203.969 L 128 186.437 121.750 180.469 L 115.500 174.500 121.225 180.504 M 112.490 206.990 C 114.065 208.634, 115.527 209.807, 115.738 209.596 C 116.200 209.134, 111.181 204, 110.267 204 C 109.915 204, 110.915 205.345, 112.490 206.990 M 122 215.882 C 122 216.432, 122.450 217.160, 123 217.500 C 123.550 217.840, 124 217.668, 124 217.118 C 124 216.568, 123.550 215.840, 123 215.500 C 122.450 215.160, 122 215.332, 122 215.882" stroke="none" fill="#0d4d0d" fill-rule="evenodd"/><path d="M 129 43.763 L 129 60.527 142.918 74.418 L 156.836 88.309 164.168 83.738 C 168.201 81.223, 172.596 77.998, 173.936 76.571 L 176.372 73.975 174.336 71.238 C 173.216 69.732, 171.378 68.362, 170.252 68.194 C 169.125 68.025, 167.975 67.013, 167.696 65.944 C 167.416 64.875, 166.470 64, 165.594 64 C 164.628 64, 164 63.150, 164 61.845 C 164 59.725, 164.037 59.720, 166.250 61.553 C 170.420 65.005, 161.600 56.280, 146.071 41.593 C 137.585 33.567, 130.273 27, 129.821 27 C 129.370 27, 129 34.544, 129 43.763 M 136 35 C 136 35.550, 136.477 36, 137.059 36 C 137.641 36, 137.840 35.550, 137.500 35 C 137.160 34.450, 136.684 34, 136.441 34 C 136.198 34, 136 34.450, 136 35 M 169 64.378 C 169 64.585, 169.787 65.373, 170.750 66.128 C 172.336 67.371, 172.371 67.336, 171.128 65.750 C 169.821 64.084, 169 63.555, 169 64.378 M 175 69.500 C 176.292 70.875, 177.574 72, 177.849 72 C 178.124 72, 177.292 70.875, 176 69.500 C 174.708 68.125, 173.426 67, 173.151 67 C 172.876 67, 173.708 68.125, 175 69.500 M 92 163 C 91.099 163.582, 90.975 163.975, 91.691 163.985 C 92.346 163.993, 93.160 163.550, 93.500 163 C 94.267 161.758, 93.921 161.758, 92 163 M 103.750 164.965 C 104.463 165.783, 105 169.078, 105 172.632 C 105 177.777, 108.315 193.602, 111.674 204.492 C 112.233 206.305, 112.118 206.355, 110.394 205.049 C 109.352 204.260, 111.404 206.618, 114.953 210.288 C 119.253 214.736, 121.652 216.563, 122.145 215.765 C 122.634 214.974, 123.223 215.456, 123.881 217.187 C 126.367 223.726, 127 221.008, 127 203.789 L 127 186.460 117.750 177.450 C 109.074 168.998, 100.961 161.763, 103.750 164.965 M 80 170.975 C 77.646 172.792, 77.599 173.005, 79.199 174.616 C 80.802 176.229, 80.868 176.210, 80.363 174.280 C 79.997 172.879, 80.555 171.724, 82.136 170.617 C 83.406 169.728, 84.007 169.010, 83.473 169.022 C 82.938 169.034, 81.375 169.913, 80 170.975 M 113.405 207.858 C 115.443 210.150, 116 210.446, 116 209.241 C 116 208.823, 114.987 207.859, 113.750 207.099 C 111.508 205.722, 111.507 205.724, 113.405 207.858" stroke="none" fill="#0d320d" fill-rule="evenodd"/><path d="M 122 30.217 C 119.525 32.509, 110.300 41.181, 101.500 49.488 C 92.700 57.795, 83.030 66.901, 80.011 69.723 C 76.991 72.545, 74.741 75.034, 75.011 75.252 C 75.280 75.471, 80.836 78.908, 87.357 82.890 L 99.214 90.130 113.607 75.859 L 128 61.589 128 43.795 C 128 34.008, 127.662 26.011, 127.250 26.025 C 126.838 26.039, 124.475 27.925, 122 30.217 M 170.929 180.658 C 165.743 185.420, 156.541 194.082, 150.480 199.908 C 144.418 205.734, 137.893 211.885, 135.980 213.577 C 134.066 215.269, 131.375 217.952, 130 219.540 C 127.712 222.181, 127.840 222.141, 131.500 219.066 C 136.406 214.946, 181 172.873, 181 172.365 C 181 171.515, 179.900 172.421, 170.929 180.658" stroke="none" fill="#9bff66" fill-rule="evenodd"/></svg>